<?xml version="1.0" encoding="UTF-8"?>
<svg width="512" height="512" viewBox="0 0 512 512" fill="none" xmlns="http://www.w3.org/2000/svg">
  <!-- Background Circle -->
  <circle cx="256" cy="256" r="256" fill="#6B46C1"/>
  
  <!-- Calculator Body -->
  <rect x="128" y="128" width="256" height="256" rx="32" fill="white"/>
  
  <!-- Calculator Display -->
  <rect x="144" y="144" width="224" height="64" rx="16" fill="#F3F4F6"/>
  
  <!-- Calculator Buttons -->
  <rect x="144" y="224" width="48" height="48" rx="8" fill="#E5E7EB"/>
  <rect x="208" y="224" width="48" height="48" rx="8" fill="#E5E7EB"/>
  <rect x="272" y="224" width="48" height="48" rx="8" fill="#E5E7EB"/>
  <rect x="336" y="224" width="48" height="48" rx="8" fill="#E5E7EB"/>
  
  <rect x="144" y="288" width="48" height="48" rx="8" fill="#E5E7EB"/>
  <rect x="208" y="288" width="48" height="48" rx="8" fill="#E5E7EB"/>
  <rect x="272" y="288" width="48" height="48" rx="8" fill="#E5E7EB"/>
  <rect x="336" y="288" width="48" height="48" rx="8" fill="#E5E7EB"/>
  
  <rect x="144" y="352" width="48" height="48" rx="8" fill="#E5E7EB"/>
  <rect x="208" y="352" width="48" height="48" rx="8" fill="#E5E7EB"/>
  <rect x="272" y="352" width="48" height="48" rx="8" fill="#E5E7EB"/>
  <rect x="336" y="352" width="48" height="48" rx="8" fill="#6B46C1"/>
</svg> 